<svg width="46" height="52" viewBox="0 0 46 52" fill="none" xmlns="http://www.w3.org/2000/svg">
<path fill-rule="evenodd" clip-rule="evenodd" d="M10.3897 12.2353H40.9628C41.1648 12.2348 41.3649 12.2743 41.5516 12.3513C41.7383 12.4284 41.9079 12.5416 42.0507 12.6844C42.1935 12.8272 42.3067 12.9968 42.3838 13.1835C42.4609 13.3702 42.5003 13.5703 42.4998 13.7722V15.2867C42.4998 16.1358 41.8123 16.8235 40.9628 16.8235H10.3897C10.1878 16.824 9.98769 16.7846 9.801 16.7076C9.61431 16.6305 9.44468 16.5173 9.30187 16.3745C9.15905 16.2317 9.04585 16.0621 8.96878 15.8754C8.89172 15.6887 8.85229 15.4886 8.85277 15.2867V13.7722C8.85277 12.923 9.54033 12.2353 10.3897 12.2353ZM5.79395 15.2867C5.79395 17.829 7.85005 19.8824 10.3897 19.8824H40.9628C43.5017 19.8824 45.5586 17.8251 45.5586 15.2867V13.7722C45.5586 11.2299 43.5025 9.17651 40.9628 9.17651H10.3897C7.8509 9.17651 5.79395 11.2338 5.79395 13.7722V15.2867ZM12.8064 37.7465C13.6484 37.2016 14.2057 36.2541 14.2057 35.1765C14.2057 33.4872 12.8362 32.1177 11.1469 32.1177C9.45753 32.1177 8.08805 33.4872 8.08805 35.1765C8.08805 36.2541 8.64531 37.2017 9.48738 37.7465L8.85277 42.8235H13.441L12.8064 37.7465Z" fill="#FECF43"/>
<path fill-rule="evenodd" clip-rule="evenodd" d="M18.7943 41.2931C18.7943 45.5175 15.3713 48.9412 11.1473 48.9412C6.92429 48.9412 3.50023 45.5168 3.50023 41.2938V10.7061C3.50023 6.4822 6.92326 3.05883 11.1473 3.05883C15.1398 3.05883 18.7943 6.29434 18.7943 9.17649C18.7943 10.0211 19.479 10.7059 20.3237 10.7059C21.1683 10.7059 21.853 10.0211 21.853 9.17649C21.8531 4.5164 16.7518 0 11.1473 0C5.23384 0 0.441406 4.79294 0.441406 10.7061V41.2938C0.441406 47.206 5.23486 51.9999 11.1473 51.9999C17.0608 51.9999 21.8531 47.2066 21.8531 41.293V19.8823C21.8531 19.0376 21.1684 18.353 20.3237 18.353C19.479 18.353 18.7944 19.0377 18.7944 19.8823L18.7943 41.2931Z" fill="#FECF43"/>
</svg>
