<svg width="292" height="32" viewBox="0 0 292 32" fill="none" xmlns="http://www.w3.org/2000/svg">
<path d="M19.96 26.12C20.1733 26.52 20.1867 26.92 20 27.32C19.8667 27.7467 19.64 28.0667 19.32 28.28C19.16 28.4133 19.0133 28.5333 18.88 28.64C18.7467 28.72 18.6 28.7867 18.44 28.84C18.1467 29 17.8 29.0533 17.4 29C17.24 29 17.0933 28.9733 16.96 28.92C16.8267 28.8667 16.6933 28.8 16.56 28.72C16.4267 28.64 16.28 28.56 16.12 28.48C15.9867 28.3733 15.8533 28.2667 15.72 28.16C15.56 28.0267 15.4133 27.9067 15.28 27.8C15.1467 27.6933 15.0267 27.5733 14.92 27.44C14.7867 27.3067 14.6667 27.1733 14.56 27.04C14.4533 26.9067 14.3467 26.7867 14.24 26.68L13.76 26.16L6.08 18.12L6.2 26.16V26.52C6.2 26.6267 6.18667 26.7467 6.16 26.88C6.13333 26.9867 6.10667 27.1067 6.08 27.24C6 27.5867 5.90667 27.8933 5.8 28.16C5.74667 28.32 5.66667 28.4533 5.56 28.56C5.48 28.6667 5.38667 28.7733 5.28 28.88C4.98667 29.1467 4.64 29.2933 4.24 29.32C3.84 29.4533 3.46667 29.4933 3.12 29.44C2.8 29.4133 2.46667 29.32 2.12 29.16C1.85333 29 1.61333 28.7333 1.4 28.36C1.34667 28.2533 1.30667 28.1867 1.28 28.16C1.28 28.1333 1.25333 28.04 1.2 27.88C1.04 27.6133 0.96 27.3467 0.96 27.08C0.933333 26.92 0.906667 26.7733 0.88 26.64C0.88 26.5067 0.866667 26.36 0.84 26.2C0.813333 26.0933 0.8 25.9867 0.8 25.88C0.8 25.7733 0.8 25.6667 0.8 25.56C0.826667 25.4267 0.84 25.32 0.84 25.24C0.84 25.1333 0.84 25.0133 0.84 24.88L0.8 21.72L0.76 15.84C0.76 14.1333 0.72 12.2933 0.64 10.32C0.613333 9.36 0.6 8.50667 0.6 7.76C0.6 7.01333 0.613333 6.17333 0.64 5.24V5.08C0.693333 4.78667 0.72 4.50667 0.72 4.24C0.72 3.94666 0.733333 3.66666 0.76 3.4C0.76 2.86667 0.88 2.33333 1.12 1.8C1.28 1.4 1.56 1.08 1.96 0.839998C2.17333 0.706665 2.37333 0.626665 2.56 0.599998C2.77333 0.546666 3 0.493332 3.24 0.439998C3.42667 0.439998 3.6 0.453331 3.76 0.479998C3.94667 0.506666 4.12 0.533333 4.28 0.559999C4.62667 0.613332 4.94667 0.759998 5.24 0.999998C5.32 1.08 5.38667 1.17333 5.44 1.28C5.52 1.38667 5.58667 1.52 5.64 1.68C5.77333 1.89333 5.86667 2.2 5.92 2.6C5.94667 2.76 5.96 2.92 5.96 3.08C5.98667 3.24 6 3.41333 6 3.6V5.24L6.04 10.12C6.46667 9.74667 6.88 9.36 7.28 8.96C7.70667 8.56 8.12 8.13333 8.52 7.68C9.24 6.93333 9.94667 6.21333 10.64 5.52C11.36 4.8 12.08 4.09333 12.8 3.4L12.92 3.28C13.1333 3.06667 13.3467 2.86667 13.56 2.68C13.8 2.46667 14.0267 2.26667 14.24 2.08C14.64 1.62666 15.1333 1.30666 15.72 1.12C16.0933 0.879999 16.5333 0.786665 17.04 0.839998C17.28 0.866666 17.4933 0.919999 17.68 0.999998C17.8933 1.08 18.0933 1.18667 18.28 1.32C18.4133 1.45333 18.5467 1.57333 18.68 1.68C18.8133 1.76 18.92 1.86667 19 2C19.2133 2.18667 19.3467 2.46666 19.4 2.84C19.4 3.13333 19.3467 3.4 19.24 3.64C19.16 3.77333 19.08 3.90667 19 4.04C18.92 4.17333 18.8267 4.30667 18.72 4.44C18.5867 4.6 18.4667 4.74667 18.36 4.88C18.2533 5.01333 18.1333 5.14666 18 5.28C17.8933 5.41333 17.7733 5.53333 17.64 5.64C17.5333 5.74666 17.4267 5.86666 17.32 6L16.8 6.52L9.32 14.16C9.72 14.56 10.1333 14.9867 10.56 15.44C11.0133 15.8667 11.44 16.2933 11.84 16.72C12.24 17.12 12.6133 17.5067 12.96 17.88C13.3067 18.2267 13.6 18.52 13.84 18.76C14.56 19.5067 15.2533 20.2533 15.92 21C16.5867 21.72 17.24 22.4533 17.88 23.2L18 23.32C18.2133 23.5333 18.4133 23.76 18.6 24C18.7867 24.2133 18.96 24.4267 19.12 24.64C19.52 25.0933 19.8 25.5867 19.96 26.12ZM28.4134 13.84C28.4134 14.5867 28.4134 15.4267 28.4134 16.36C28.4401 17.2933 28.4534 18.2667 28.4534 19.28C28.4534 20.2667 28.4534 21.2533 28.4534 22.24C28.4534 23.2 28.4401 24.0933 28.4134 24.92C28.3868 25.32 28.3468 25.76 28.2934 26.24C28.2401 26.6933 28.1334 27.12 27.9734 27.52C27.8134 27.92 27.5601 28.2533 27.2134 28.52C26.8934 28.76 26.4534 28.8667 25.8934 28.84C25.0668 28.7867 24.4668 28.4267 24.0934 27.76C23.7468 27.0933 23.5468 26.16 23.4934 24.96C23.4934 24.3467 23.4801 23.64 23.4534 22.84C23.4534 22.04 23.4401 21.2267 23.4134 20.4C23.4134 19.5733 23.4134 18.7733 23.4134 18C23.4134 17.2 23.4134 16.48 23.4134 15.84C23.4134 15.4667 23.4001 15.0133 23.3734 14.48C23.3734 13.9467 23.3868 13.4 23.4134 12.84C23.4401 12.28 23.5068 11.7467 23.6134 11.24C23.7201 10.7067 23.8934 10.2667 24.1334 9.92C24.3201 9.70667 24.5868 9.54667 24.9334 9.44C25.2801 9.30667 25.6401 9.24 26.0134 9.24C26.4134 9.24 26.7868 9.30667 27.1334 9.44C27.5068 9.57333 27.7734 9.76 27.9334 10C28.0401 10.16 28.1201 10.3867 28.1734 10.68C28.2268 10.9733 28.2668 11.3067 28.2934 11.68C28.3468 12.0267 28.3734 12.4 28.3734 12.8C28.4001 13.1733 28.4134 13.52 28.4134 13.84ZM26.8934 5.76C26.0668 5.97333 25.3734 5.89333 24.8134 5.52C24.2801 5.12 23.9468 4.53333 23.8134 3.76C23.7068 3.2 23.7468 2.70667 23.9334 2.28C24.1201 1.85333 24.4001 1.53333 24.7734 1.32C25.1468 1.08 25.5734 0.973332 26.0534 0.999998C26.5334 1.02666 27.0134 1.21333 27.4934 1.56C27.9468 1.88 28.2668 2.25333 28.4534 2.68C28.6668 3.10667 28.7334 3.52 28.6534 3.92C28.6001 4.32 28.4268 4.69333 28.1334 5.04C27.8401 5.36 27.4268 5.6 26.8934 5.76ZM49.0081 11.36C49.2215 11.8667 49.2348 12.4267 49.0481 13.04C48.8881 13.6533 48.5815 14.0533 48.1281 14.24C47.8881 14.3467 47.5681 14.44 47.1681 14.52C46.7681 14.5733 46.3281 14.6267 45.8481 14.68C45.3948 14.7333 44.9415 14.7733 44.4881 14.8C44.0348 14.8267 43.6481 14.84 43.3281 14.84C43.3548 15.64 43.3815 16.4667 43.4081 17.32C43.4348 18.1467 43.4615 18.96 43.4881 19.76C43.5148 20.56 43.5281 21.3333 43.5281 22.08C43.5281 22.8 43.5148 23.4533 43.4881 24.04C43.4881 24.44 43.4881 24.9067 43.4881 25.44C43.4881 25.9467 43.4481 26.44 43.3681 26.92C43.3148 27.4 43.2215 27.8267 43.0881 28.2C42.9548 28.5467 42.7548 28.7733 42.4881 28.88C41.6615 29.2267 40.9015 29.32 40.2081 29.16C39.5415 29.0267 39.0615 28.7467 38.7681 28.32C38.5548 27.9733 38.3948 27.5733 38.2881 27.12C38.1815 26.64 38.1015 26.16 38.0481 25.68C38.0215 25.1733 38.0081 24.6933 38.0081 24.24C38.0348 23.76 38.0481 23.3467 38.0481 23C38.0748 21.88 38.0881 20.6133 38.0881 19.2C38.1148 17.76 38.1281 16.32 38.1281 14.88H37.5281C37.2081 14.88 36.7948 14.88 36.2881 14.88C35.8081 14.8533 35.3148 14.8133 34.8081 14.76C34.3281 14.68 33.8748 14.5867 33.4481 14.48C33.0215 14.3467 32.7148 14.16 32.5281 13.92C32.2348 13.5733 32.0481 13.2 31.9681 12.8C31.9148 12.4 31.9415 12.0267 32.0481 11.68C32.1815 11.3067 32.3815 10.9867 32.6481 10.72C32.9148 10.4267 33.2215 10.24 33.5681 10.16C34.0481 10.0267 34.7281 9.96 35.6081 9.96C36.4881 9.93333 37.3148 9.93333 38.0881 9.96C38.0615 9.69333 38.0481 9.44 38.0481 9.2C38.0481 8.93333 38.0348 8.68 38.0081 8.44C37.9815 8.12 37.9681 7.72 37.9681 7.24C37.9681 6.73333 37.9948 6.24 38.0481 5.76C38.1281 5.25333 38.2481 4.78667 38.4081 4.36C38.5681 3.90667 38.7948 3.56 39.0881 3.32C39.4881 3 39.8881 2.82667 40.2881 2.8C40.7148 2.74667 41.1015 2.8 41.4481 2.96C41.8215 3.12 42.1281 3.36 42.3681 3.68C42.6348 3.97333 42.8215 4.30667 42.9281 4.68C43.0081 5 43.0748 5.38667 43.1281 5.84C43.1815 6.26667 43.2081 6.72 43.2081 7.2C43.2348 7.68 43.2481 8.16 43.2481 8.64C43.2481 9.12 43.2481 9.56 43.2481 9.96H43.6481C44.0481 9.96 44.5148 9.94667 45.0481 9.92C45.5815 9.89333 46.1015 9.90667 46.6081 9.96C47.1415 10.0133 47.6215 10.1467 48.0481 10.36C48.4748 10.5467 48.7948 10.88 49.0081 11.36ZM65.2847 13.6C65.498 13.9733 65.6047 14.3733 65.6047 14.8C65.6314 15.2267 65.538 15.6267 65.3247 16C65.0847 16.48 64.738 16.8133 64.2847 17C63.858 17.16 63.378 17.1733 62.8447 17.04C62.6047 16.9867 62.3914 16.8933 62.2047 16.76C62.018 16.6267 61.818 16.4933 61.6047 16.36C61.418 16.2 61.1914 16.0533 60.9247 15.92C60.6847 15.7867 60.3647 15.6933 59.9647 15.64C59.5647 15.5867 59.1247 15.5867 58.6447 15.64C58.1914 15.6933 57.778 15.8 57.4047 15.96C56.818 16.2533 56.3514 16.7067 56.0047 17.32C55.658 17.9067 55.4314 18.5467 55.3247 19.24C55.218 19.9067 55.2314 20.5867 55.3647 21.28C55.5247 21.9733 55.818 22.56 56.2447 23.04C56.5647 23.4133 56.978 23.72 57.4847 23.96C58.018 24.2 58.5247 24.3467 59.0047 24.4C59.458 24.4533 59.9114 24.4533 60.3647 24.4C60.818 24.32 61.258 24.2133 61.6847 24.08C62.0047 23.9467 62.3647 23.7733 62.7647 23.56C63.1647 23.32 63.5514 23.1733 63.9247 23.12C64.4047 23.12 64.778 23.2533 65.0447 23.52C65.3114 23.76 65.498 24.0667 65.6047 24.44C65.7114 24.7867 65.7247 25.16 65.6447 25.56C65.5914 25.96 65.4447 26.3067 65.2047 26.6C64.8847 27 64.4314 27.3867 63.8447 27.76C63.258 28.1067 62.698 28.36 62.1647 28.52C61.5247 28.7333 60.8047 28.8533 60.0047 28.88C59.2314 28.9067 58.498 28.88 57.8047 28.8C57.4847 28.7467 57.1514 28.68 56.8047 28.6C56.458 28.52 56.1247 28.4267 55.8047 28.32C54.6314 27.8933 53.6447 27.2933 52.8447 26.52C52.0714 25.72 51.4714 24.8267 51.0447 23.84C50.6447 22.8533 50.418 21.8 50.3647 20.68C50.3114 19.56 50.4447 18.4533 50.7647 17.36C51.058 16.32 51.418 15.44 51.8447 14.72C52.298 14 52.818 13.4133 53.4047 12.96C54.018 12.48 54.698 12.1067 55.4447 11.84C56.1914 11.5467 57.018 11.2933 57.9247 11.08C58.858 10.8933 59.8447 10.8933 60.8847 11.08C61.9247 11.2667 62.858 11.6133 63.6847 12.12C64.3247 12.4667 64.858 12.96 65.2847 13.6ZM84.4813 21.12C84.5079 21.6533 84.5213 22.2133 84.5213 22.8C84.5213 23.36 84.5079 23.88 84.4813 24.36C84.4546 25.08 84.4146 25.7467 84.3613 26.36C84.3079 26.9467 84.2013 27.4533 84.0413 27.88C83.8813 28.28 83.6279 28.5867 83.2813 28.8C82.9613 28.9867 82.5079 29.04 81.9213 28.96C81.3079 28.88 80.8679 28.5867 80.6013 28.08C80.3346 27.5733 80.1479 27 80.0413 26.36C79.9613 25.6933 79.9346 25.0267 79.9613 24.36C79.9879 23.6933 79.9879 23.1733 79.9613 22.8C79.9346 22.2133 79.9079 21.5467 79.8813 20.8C79.8813 20.0267 79.8013 19.3067 79.6413 18.64C79.5079 17.9467 79.2679 17.36 78.9213 16.88C78.5746 16.4 78.0546 16.1467 77.3613 16.12C76.4813 16.0667 75.8013 16.1333 75.3213 16.32C74.8679 16.5067 74.5346 16.7867 74.3213 17.16C74.1079 17.5067 73.9746 17.9333 73.9213 18.44C73.8946 18.9467 73.8413 19.4933 73.7613 20.08L73.7213 21.64V24.56C73.7213 25.04 73.7079 25.5467 73.6813 26.08C73.6813 26.5867 73.6013 27.0533 73.4413 27.48C73.2813 27.9067 73.0279 28.2667 72.6813 28.56C72.3613 28.8533 71.8813 29 71.2413 29C70.4413 29 69.8413 28.7467 69.4413 28.24C69.0679 27.7067 68.8813 27.0533 68.8813 26.28V3.28C68.8813 3.12 68.8813 2.97333 68.8813 2.84C68.9079 2.68 68.9346 2.52 68.9613 2.36C69.0146 2.2 69.0546 2.05333 69.0813 1.92C69.1079 1.76 69.1479 1.61333 69.2013 1.48C69.2813 1.21333 69.4146 1.01333 69.6013 0.88C69.7346 0.746666 69.8679 0.64 70.0013 0.559999C70.1346 0.479998 70.2813 0.426665 70.4413 0.399999C70.5746 0.373332 70.7213 0.359999 70.8813 0.359999C71.0413 0.333333 71.2013 0.32 71.3613 0.32C71.7613 0.32 72.1479 0.44 72.5213 0.68C72.6813 0.786665 72.8279 0.906664 72.9613 1.04C73.0946 1.14666 73.2013 1.30666 73.2813 1.52C73.4946 2.02667 73.6013 2.50667 73.6013 2.96C73.6279 3.09333 73.6413 3.29333 73.6413 3.56C73.6679 3.8 73.6813 4.05333 73.6813 4.32C73.6813 4.58666 73.6813 4.85333 73.6813 5.12C73.7079 5.36 73.7213 5.54667 73.7213 5.68V5.88C73.7479 6.73333 73.7613 7.6 73.7613 8.48C73.7613 9.36 73.7613 10.2533 73.7613 11.16V11.84C74.8813 11.4667 76.0546 11.2933 77.2812 11.32C78.5079 11.32 79.6013 11.56 80.5613 12.04C81.5479 12.5467 82.2946 13.12 82.8013 13.76C83.3346 14.4 83.7213 15.1067 83.9613 15.88C84.2013 16.6533 84.3346 17.48 84.3613 18.36C84.4146 19.24 84.4546 20.16 84.4813 21.12ZM101.549 23.52C101.869 23.44 102.189 23.3867 102.509 23.36C102.856 23.3333 103.163 23.3733 103.429 23.48C103.723 23.5867 103.963 23.7733 104.149 24.04C104.336 24.28 104.429 24.6267 104.429 25.08C104.429 25.4 104.349 25.7067 104.189 26C104.029 26.2933 103.829 26.56 103.589 26.8C103.349 27.04 103.083 27.2533 102.789 27.44C102.496 27.6 102.216 27.7333 101.949 27.84C101.176 28.1867 100.283 28.4533 99.2694 28.64C98.2827 28.8267 97.256 28.8933 96.1894 28.84C94.7494 28.7867 93.3627 28.5067 92.0294 28C90.7227 27.4667 89.696 26.6 88.9494 25.4C88.256 24.2267 87.8427 22.92 87.7094 21.48C87.576 20.04 87.6427 18.68 87.9094 17.4C88.2027 15.8533 88.696 14.6 89.3894 13.64C90.1094 12.6533 90.9627 11.8667 91.9494 11.28C93.1494 10.5867 94.496 10.2267 95.9894 10.2C97.4827 10.1733 98.9094 10.4667 100.269 11.08C101.176 11.48 101.989 12.0267 102.709 12.72C103.429 13.3867 103.976 14.2 104.349 15.16C104.456 15.4 104.536 15.6933 104.589 16.04C104.669 16.3867 104.723 16.76 104.749 17.16C104.776 17.5333 104.776 17.9067 104.749 18.28C104.723 18.6533 104.656 18.9867 104.549 19.28C104.389 19.76 104.189 20.1333 103.949 20.4C103.709 20.6667 103.403 20.8667 103.029 21C102.656 21.1333 102.203 21.2267 101.669 21.28C101.163 21.3067 100.549 21.3333 99.8294 21.36C99.1894 21.3867 98.5894 21.4 98.0294 21.4C97.4694 21.4 96.896 21.4 96.3094 21.4C95.7227 21.3733 95.1094 21.36 94.4694 21.36C93.856 21.3333 93.1627 21.3067 92.3894 21.28C92.3094 21.8133 92.376 22.28 92.5894 22.68C92.8294 23.0533 93.1494 23.3733 93.5494 23.64C93.9494 23.88 94.4027 24.0667 94.9094 24.2C95.416 24.3333 95.9094 24.4133 96.3894 24.44C97.296 24.4933 98.1627 24.4267 98.9894 24.24C99.816 24.0267 100.669 23.7867 101.549 23.52ZM99.8294 15.76C99.3227 15.1733 98.7894 14.7467 98.2294 14.48C97.8027 14.2933 97.3494 14.2133 96.8694 14.24C96.416 14.24 95.976 14.3067 95.5494 14.44C94.776 14.6267 94.1227 15.0267 93.5894 15.64C93.536 15.6933 93.4427 15.8267 93.3094 16.04C93.176 16.2267 93.0427 16.4267 92.9094 16.64C92.8027 16.8533 92.7227 17.0533 92.6694 17.24C92.616 17.4267 92.6427 17.52 92.7494 17.52H100.589C100.563 17.1467 100.496 16.84 100.389 16.6C100.283 16.3333 100.096 16.0533 99.8294 15.76ZM108.023 14.72C108.023 14.1067 108.009 13.4533 107.983 12.76C107.983 12.0667 108.103 11.44 108.343 10.88C108.556 10.3733 108.903 10.0133 109.383 9.8C109.889 9.56 110.383 9.50667 110.863 9.64C111.343 9.72 111.716 9.86667 111.983 10.08C112.249 10.2933 112.436 10.5467 112.543 10.84C112.676 11.1067 112.756 11.4267 112.783 11.8C112.809 12.1467 112.836 12.4933 112.863 12.84C113.129 12.36 113.463 11.9733 113.863 11.68C114.263 11.3867 114.676 11.1467 115.103 10.96C115.529 10.7733 115.929 10.64 116.303 10.56C116.703 10.48 117.009 10.44 117.223 10.44C118.236 10.44 119.236 10.6667 120.223 11.12C121.236 11.5467 122.076 12.16 122.743 12.96C123.116 13.44 123.396 13.9467 123.583 14.48C123.796 14.9867 123.943 15.52 124.023 16.08C124.129 16.64 124.196 17.2133 124.223 17.8C124.249 18.36 124.276 18.9333 124.303 19.52C124.436 21.2267 124.436 22.92 124.303 24.6C124.276 24.9467 124.263 25.3467 124.263 25.8C124.263 26.2533 124.223 26.7067 124.143 27.16C124.089 27.5867 123.969 27.9733 123.783 28.32C123.623 28.64 123.343 28.84 122.943 28.92C122.383 29.0533 121.916 29.08 121.543 29C121.196 28.9467 120.916 28.8267 120.703 28.64C120.489 28.4533 120.329 28.2133 120.223 27.92C120.116 27.6267 120.023 27.2933 119.943 26.92C119.889 26.6267 119.836 26.2933 119.783 25.92C119.756 25.52 119.729 25.12 119.703 24.72C119.703 24.32 119.689 23.9333 119.663 23.56C119.663 23.16 119.663 22.8 119.663 22.48C119.663 21.9733 119.649 21.4133 119.623 20.8C119.596 20.1867 119.596 19.6133 119.623 19.08C119.623 17.8267 119.289 16.88 118.623 16.24C117.983 15.5733 117.103 15.2933 115.983 15.4C115.129 15.5067 114.383 15.8533 113.743 16.44C113.103 17 112.796 17.7333 112.823 18.64C112.823 18.9867 112.823 19.3067 112.823 19.6C112.823 19.8933 112.809 20.1867 112.783 20.48C112.783 20.7733 112.783 21.0933 112.783 21.44C112.783 21.7867 112.783 22.1733 112.783 22.6C112.783 23.48 112.783 24.4133 112.783 25.4C112.783 26.36 112.663 27.1467 112.423 27.76C112.209 28.4 111.849 28.84 111.343 29.08C110.836 29.32 110.236 29.2533 109.543 28.88C109.249 28.72 109.009 28.5067 108.823 28.24C108.663 27.9467 108.529 27.64 108.423 27.32C108.343 27 108.289 26.68 108.263 26.36C108.236 26.0133 108.209 25.6933 108.183 25.4C108.103 24.52 108.049 23.7067 108.023 22.96C108.023 22.1867 108.023 21.36 108.023 20.48V14.72ZM207.394 13.6C207.607 13.9733 207.714 14.3733 207.714 14.8C207.741 15.2267 207.647 15.6267 207.434 16C207.194 16.48 206.847 16.8133 206.394 17C205.967 17.16 205.487 17.1733 204.954 17.04C204.714 16.9867 204.501 16.8933 204.314 16.76C204.127 16.6267 203.927 16.4933 203.714 16.36C203.527 16.2 203.301 16.0533 203.034 15.92C202.794 15.7867 202.474 15.6933 202.074 15.64C201.674 15.5867 201.234 15.5867 200.754 15.64C200.301 15.6933 199.887 15.8 199.514 15.96C198.927 16.2533 198.461 16.7067 198.114 17.32C197.767 17.9067 197.541 18.5467 197.434 19.24C197.327 19.9067 197.341 20.5867 197.474 21.28C197.634 21.9733 197.927 22.56 198.354 23.04C198.674 23.4133 199.087 23.72 199.594 23.96C200.127 24.2 200.634 24.3467 201.114 24.4C201.567 24.4533 202.021 24.4533 202.474 24.4C202.927 24.32 203.367 24.2133 203.794 24.08C204.114 23.9467 204.474 23.7733 204.874 23.56C205.274 23.32 205.661 23.1733 206.034 23.12C206.514 23.12 206.887 23.2533 207.154 23.52C207.421 23.76 207.607 24.0667 207.714 24.44C207.821 24.7867 207.834 25.16 207.754 25.56C207.701 25.96 207.554 26.3067 207.314 26.6C206.994 27 206.541 27.3867 205.954 27.76C205.367 28.1067 204.807 28.36 204.274 28.52C203.634 28.7333 202.914 28.8533 202.114 28.88C201.341 28.9067 200.607 28.88 199.914 28.8C199.594 28.7467 199.261 28.68 198.914 28.6C198.567 28.52 198.234 28.4267 197.914 28.32C196.741 27.8933 195.754 27.2933 194.954 26.52C194.181 25.72 193.581 24.8267 193.154 23.84C192.754 22.8533 192.527 21.8 192.474 20.68C192.421 19.56 192.554 18.4533 192.874 17.36C193.167 16.32 193.527 15.44 193.954 14.72C194.407 14 194.927 13.4133 195.514 12.96C196.127 12.48 196.807 12.1067 197.554 11.84C198.301 11.5467 199.127 11.2933 200.034 11.08C200.967 10.8933 201.954 10.8933 202.994 11.08C204.034 11.2667 204.967 11.6133 205.794 12.12C206.434 12.4667 206.967 12.96 207.394 13.6ZM216.151 10.92C217.031 10.4933 217.951 10.1867 218.911 10C219.871 9.81333 220.817 9.77333 221.751 9.88C222.711 9.98667 223.631 10.24 224.511 10.64C225.417 11.04 226.244 11.6 226.991 12.32C227.604 12.9333 228.137 13.68 228.591 14.56C229.044 15.4133 229.377 16.2533 229.591 17.08C230.044 18.5467 230.111 20.0267 229.791 21.52C229.471 23.0133 228.924 24.4 228.151 25.68C227.777 26.2667 227.311 26.8 226.751 27.28C226.217 27.7333 225.644 28.1067 225.031 28.4C224.231 28.7733 223.364 29.0267 222.431 29.16C221.497 29.32 220.591 29.36 219.711 29.28C218.111 29.2 216.697 28.8 215.471 28.08C214.271 27.36 213.297 26.44 212.551 25.32C211.831 24.2 211.351 22.9333 211.111 21.52C210.897 20.08 210.991 18.6133 211.391 17.12C211.817 15.52 212.431 14.2267 213.231 13.24C214.057 12.2267 215.031 11.4533 216.151 10.92ZM217.351 16.28C216.951 16.6533 216.644 17.12 216.431 17.68C216.217 18.24 216.084 18.8267 216.031 19.44C215.977 20.0267 216.017 20.6267 216.151 21.24C216.311 21.8267 216.551 22.36 216.871 22.84C217.137 23.24 217.617 23.5733 218.311 23.84C219.004 24.1067 219.724 24.2667 220.471 24.32C221.324 24.3733 222.071 24.1467 222.711 23.64C223.351 23.1067 223.831 22.4533 224.151 21.68C224.497 20.9067 224.657 20.0667 224.631 19.16C224.604 18.2533 224.364 17.4267 223.911 16.68C223.591 16.1467 223.137 15.76 222.551 15.52C221.991 15.2533 221.391 15.12 220.751 15.12C220.137 15.0933 219.524 15.1867 218.911 15.4C218.297 15.5867 217.777 15.88 217.351 16.28ZM254.858 19.68C254.911 20.5333 254.938 21.3467 254.938 22.12C254.938 22.8667 254.911 23.6667 254.858 24.52C254.858 24.84 254.858 25.2 254.858 25.6C254.858 26 254.831 26.3867 254.778 26.76C254.725 27.1333 254.631 27.48 254.498 27.8C254.365 28.12 254.165 28.3733 253.898 28.56C253.578 28.7733 253.218 28.92 252.818 29C252.418 29.0533 252.045 29.0267 251.698 28.92C251.351 28.8133 251.045 28.6133 250.778 28.32C250.538 28.0267 250.405 27.6133 250.378 27.08C250.298 25.8533 250.258 24.6267 250.258 23.4C250.258 22.7867 250.245 22.2 250.218 21.64C250.218 21.08 250.231 20.2933 250.258 19.28C250.258 18.7733 250.218 18.2 250.138 17.56C250.058 16.8933 249.858 16.4267 249.538 16.16C249.298 15.9467 249.031 15.8267 248.738 15.8C248.445 15.7467 248.151 15.7733 247.858 15.88C247.591 15.9867 247.351 16.1867 247.138 16.48C246.925 16.7467 246.778 17.0933 246.698 17.52C246.698 17.8667 246.685 18.2267 246.658 18.6C246.658 18.9467 246.671 19.28 246.698 19.6C246.725 20.4533 246.738 21.2667 246.738 22.04C246.738 22.7867 246.725 23.5867 246.698 24.44C246.671 24.7867 246.658 25.16 246.658 25.56C246.685 25.96 246.685 26.36 246.658 26.76C246.631 27.1333 246.551 27.48 246.418 27.8C246.311 28.12 246.111 28.3733 245.818 28.56C245.498 28.7733 245.151 28.9067 244.778 28.96C244.431 28.9867 244.098 28.9333 243.778 28.8C243.485 28.64 243.218 28.4 242.978 28.08C242.765 27.76 242.645 27.3333 242.618 26.8C242.565 26.1867 242.525 25.6267 242.498 25.12C242.498 24.5867 242.498 24.0267 242.498 23.44C242.498 22.8267 242.511 22.2 242.538 21.56C242.565 20.8933 242.551 20.2533 242.498 19.64C242.498 19.4533 242.485 19.24 242.458 19C242.458 18.7333 242.445 18.4667 242.418 18.2C242.418 17.9333 242.391 17.68 242.338 17.44C242.311 17.1733 242.258 16.96 242.178 16.8C241.965 16.4267 241.578 16.1867 241.018 16.08C240.485 15.9733 240.031 16.0133 239.658 16.2C239.285 16.3867 239.005 16.6267 238.818 16.92C238.631 17.2133 238.498 17.5333 238.418 17.88C238.338 18.2267 238.298 18.6 238.298 19C238.298 19.3733 238.298 19.7333 238.298 20.08C238.298 21.8133 238.298 23.32 238.298 24.6C238.325 25.8533 238.191 26.8667 237.898 27.64C237.765 28.04 237.485 28.3467 237.058 28.56C236.658 28.7733 236.218 28.88 235.738 28.88C235.285 28.88 234.858 28.7733 234.458 28.56C234.058 28.3467 233.791 28.0133 233.658 27.56C233.578 27.2667 233.498 26.8533 233.418 26.32C233.365 25.76 233.325 25.1467 233.298 24.48C233.271 23.8133 233.258 23.1467 233.258 22.48C233.258 21.7867 233.258 21.16 233.258 20.6V14.84C233.231 14.2267 233.218 13.56 233.218 12.84C233.218 12.12 233.325 11.4667 233.538 10.88C233.725 10.3733 234.018 10.0533 234.418 9.92C234.818 9.76 235.231 9.69333 235.658 9.72C236.138 9.72 236.511 9.85333 236.778 10.12C237.071 10.36 237.285 10.6667 237.418 11.04C237.551 11.3867 237.631 11.7867 237.658 12.24C237.685 12.6667 237.711 13.08 237.738 13.48C238.031 12.8133 238.378 12.2667 238.778 11.84C239.205 11.3867 239.805 11.0933 240.578 10.96C242.551 10.5867 244.125 11.0933 245.298 12.48C245.831 11.9467 246.511 11.5067 247.338 11.16C247.978 10.92 248.631 10.8133 249.298 10.84C249.965 10.84 250.591 10.96 251.178 11.2C251.791 11.44 252.338 11.7867 252.818 12.24C253.325 12.6933 253.725 13.24 254.018 13.88C254.418 14.7333 254.645 15.68 254.698 16.72C254.751 17.76 254.805 18.7467 254.858 19.68ZM263.059 29C263.059 29.6933 262.806 30.28 262.299 30.76C261.819 31.2667 261.232 31.52 260.539 31.52C259.846 31.52 259.246 31.2667 258.739 30.76C258.259 30.28 258.019 29.6933 258.019 29C258.019 28.3067 258.259 27.7067 258.739 27.2C259.246 26.6933 259.846 26.44 260.539 26.44C261.232 26.44 261.819 26.6933 262.299 27.2C262.806 27.7067 263.059 28.3067 263.059 29ZM271.187 13.84C271.187 14.5867 271.187 15.4267 271.187 16.36C271.214 17.2933 271.227 18.2667 271.227 19.28C271.227 20.2667 271.227 21.2533 271.227 22.24C271.227 23.2 271.214 24.0933 271.187 24.92C271.16 25.32 271.12 25.76 271.067 26.24C271.014 26.6933 270.907 27.12 270.747 27.52C270.587 27.92 270.334 28.2533 269.987 28.52C269.667 28.76 269.227 28.8667 268.667 28.84C267.84 28.7867 267.24 28.4267 266.867 27.76C266.52 27.0933 266.32 26.16 266.267 24.96C266.267 24.3467 266.254 23.64 266.227 22.84C266.227 22.04 266.214 21.2267 266.187 20.4C266.187 19.5733 266.187 18.7733 266.187 18C266.187 17.2 266.187 16.48 266.187 15.84C266.187 15.4667 266.174 15.0133 266.147 14.48C266.147 13.9467 266.16 13.4 266.187 12.84C266.214 12.28 266.28 11.7467 266.387 11.24C266.494 10.7067 266.667 10.2667 266.907 9.92C267.094 9.70667 267.36 9.54667 267.707 9.44C268.054 9.30667 268.414 9.24 268.787 9.24C269.187 9.24 269.56 9.30667 269.907 9.44C270.28 9.57333 270.547 9.76 270.707 10C270.814 10.16 270.894 10.3867 270.947 10.68C271 10.9733 271.04 11.3067 271.067 11.68C271.12 12.0267 271.147 12.4 271.147 12.8C271.174 13.1733 271.187 13.52 271.187 13.84ZM269.667 5.76C268.84 5.97333 268.147 5.89333 267.587 5.52C267.054 5.12 266.72 4.53333 266.587 3.76C266.48 3.2 266.52 2.70667 266.707 2.28C266.894 1.85333 267.174 1.53333 267.547 1.32C267.92 1.08 268.347 0.973332 268.827 0.999998C269.307 1.02666 269.787 1.21333 270.267 1.56C270.72 1.88 271.04 2.25333 271.227 2.68C271.44 3.10667 271.507 3.52 271.427 3.92C271.374 4.32 271.2 4.69333 270.907 5.04C270.614 5.36 270.2 5.6 269.667 5.76ZM275.171 14.72C275.171 14.1067 275.158 13.4533 275.131 12.76C275.131 12.0667 275.251 11.44 275.491 10.88C275.705 10.3733 276.051 10.0133 276.531 9.8C277.038 9.56 277.531 9.50667 278.011 9.64C278.491 9.72 278.865 9.86667 279.131 10.08C279.398 10.2933 279.585 10.5467 279.691 10.84C279.825 11.1067 279.905 11.4267 279.931 11.8C279.958 12.1467 279.985 12.4933 280.011 12.84C280.278 12.36 280.611 11.9733 281.011 11.68C281.411 11.3867 281.825 11.1467 282.251 10.96C282.678 10.7733 283.078 10.64 283.451 10.56C283.851 10.48 284.158 10.44 284.371 10.44C285.385 10.44 286.385 10.6667 287.371 11.12C288.385 11.5467 289.225 12.16 289.891 12.96C290.265 13.44 290.545 13.9467 290.731 14.48C290.945 14.9867 291.091 15.52 291.171 16.08C291.278 16.64 291.345 17.2133 291.371 17.8C291.398 18.36 291.425 18.9333 291.451 19.52C291.585 21.2267 291.585 22.92 291.451 24.6C291.425 24.9467 291.411 25.3467 291.411 25.8C291.411 26.2533 291.371 26.7067 291.291 27.16C291.238 27.5867 291.118 27.9733 290.931 28.32C290.771 28.64 290.491 28.84 290.091 28.92C289.531 29.0533 289.065 29.08 288.691 29C288.345 28.9467 288.065 28.8267 287.851 28.64C287.638 28.4533 287.478 28.2133 287.371 27.92C287.265 27.6267 287.171 27.2933 287.091 26.92C287.038 26.6267 286.985 26.2933 286.931 25.92C286.905 25.52 286.878 25.12 286.851 24.72C286.851 24.32 286.838 23.9333 286.811 23.56C286.811 23.16 286.811 22.8 286.811 22.48C286.811 21.9733 286.798 21.4133 286.771 20.8C286.745 20.1867 286.745 19.6133 286.771 19.08C286.771 17.8267 286.438 16.88 285.771 16.24C285.131 15.5733 284.251 15.2933 283.131 15.4C282.278 15.5067 281.531 15.8533 280.891 16.44C280.251 17 279.945 17.7333 279.971 18.64C279.971 18.9867 279.971 19.3067 279.971 19.6C279.971 19.8933 279.958 20.1867 279.931 20.48C279.931 20.7733 279.931 21.0933 279.931 21.44C279.931 21.7867 279.931 22.1733 279.931 22.6C279.931 23.48 279.931 24.4133 279.931 25.4C279.931 26.36 279.811 27.1467 279.571 27.76C279.358 28.4 278.998 28.84 278.491 29.08C277.985 29.32 277.385 29.2533 276.691 28.88C276.398 28.72 276.158 28.5067 275.971 28.24C275.811 27.9467 275.678 27.64 275.571 27.32C275.491 27 275.438 26.68 275.411 26.36C275.385 26.0133 275.358 25.6933 275.331 25.4C275.251 24.52 275.198 23.7067 275.171 22.96C275.171 22.1867 275.171 21.36 275.171 20.48V14.72Z" fill="#010101"/>
<path d="M148.671 12.92C148.725 13.8 148.711 14.7067 148.631 15.64C148.578 16.5733 148.485 17.48 148.351 18.36C148.085 19.88 147.591 21.36 146.871 22.8C146.151 24.24 145.098 25.4667 143.711 26.48C142.271 27.5467 140.631 28.28 138.791 28.68C136.951 29.0533 135.125 29.28 133.311 29.36C132.698 29.4133 132.071 29.4267 131.431 29.4C130.818 29.4 130.218 29.3333 129.631 29.2C129.151 29.12 128.791 28.9733 128.551 28.76C128.418 28.68 128.311 28.5733 128.231 28.44C128.151 28.3067 128.085 28.1733 128.031 28.04C127.951 27.9067 127.885 27.7733 127.831 27.64C127.805 27.48 127.765 27.32 127.711 27.16C127.685 27.0267 127.658 26.9067 127.631 26.8C127.631 26.6667 127.631 26.5467 127.631 26.44V3.6C127.631 3.41333 127.631 3.24 127.631 3.08C127.631 2.92 127.658 2.76 127.711 2.6C127.765 2.22667 127.845 1.92 127.951 1.68C128.058 1.36 128.205 1.13333 128.391 0.999998C128.551 0.866665 128.711 0.773332 128.871 0.719999C129.031 0.639999 129.178 0.573332 129.311 0.52C129.471 0.466665 129.631 0.466665 129.791 0.52C129.978 0.546666 130.178 0.506666 130.391 0.399999L137.071 0.559999C138.831 0.613332 140.405 1.02667 141.791 1.8C143.178 2.54667 144.365 3.50667 145.351 4.68C146.338 5.85333 147.111 7.17333 147.671 8.64C148.231 10.08 148.565 11.5067 148.671 12.92ZM141.231 20.52C141.738 19.72 142.111 18.8 142.351 17.76C142.591 16.72 142.698 15.6667 142.671 14.6C142.645 13.5067 142.498 12.4533 142.231 11.44C141.965 10.4 141.591 9.48 141.111 8.68C140.738 8.09333 140.258 7.61333 139.671 7.24C139.085 6.86667 138.431 6.58667 137.711 6.4C136.991 6.18667 136.218 6.04 135.391 5.96C134.591 5.88 133.805 5.84 133.031 5.84C133.058 6.61333 133.071 7.36 133.071 8.08C133.071 8.8 133.071 9.56 133.071 10.36C133.045 11.32 133.031 12.2533 133.031 13.16C133.031 14.0667 133.031 14.9467 133.031 15.8V23.96C133.858 23.9333 134.645 23.8933 135.391 23.84C136.165 23.76 136.898 23.6 137.591 23.36C138.311 23.12 138.965 22.7867 139.551 22.36C140.165 21.9067 140.725 21.2933 141.231 20.52ZM157.127 10.92C158.007 10.4933 158.927 10.1867 159.887 10C160.847 9.81333 161.794 9.77333 162.727 9.88C163.687 9.98667 164.607 10.24 165.487 10.64C166.394 11.04 167.221 11.6 167.967 12.32C168.581 12.9333 169.114 13.68 169.567 14.56C170.021 15.4133 170.354 16.2533 170.567 17.08C171.021 18.5467 171.087 20.0267 170.767 21.52C170.447 23.0133 169.901 24.4 169.127 25.68C168.754 26.2667 168.287 26.8 167.727 27.28C167.194 27.7333 166.621 28.1067 166.007 28.4C165.207 28.7733 164.341 29.0267 163.407 29.16C162.474 29.32 161.567 29.36 160.687 29.28C159.087 29.2 157.674 28.8 156.447 28.08C155.247 27.36 154.274 26.44 153.527 25.32C152.807 24.2 152.327 22.9333 152.087 21.52C151.874 20.08 151.967 18.6133 152.367 17.12C152.794 15.52 153.407 14.2267 154.207 13.24C155.034 12.2267 156.007 11.4533 157.127 10.92ZM158.327 16.28C157.927 16.6533 157.621 17.12 157.407 17.68C157.194 18.24 157.061 18.8267 157.007 19.44C156.954 20.0267 156.994 20.6267 157.127 21.24C157.287 21.8267 157.527 22.36 157.847 22.84C158.114 23.24 158.594 23.5733 159.287 23.84C159.981 24.1067 160.701 24.2667 161.447 24.32C162.301 24.3733 163.047 24.1467 163.687 23.64C164.327 23.1067 164.807 22.4533 165.127 21.68C165.474 20.9067 165.634 20.0667 165.607 19.16C165.581 18.2533 165.341 17.4267 164.887 16.68C164.567 16.1467 164.114 15.76 163.527 15.52C162.967 15.2533 162.367 15.12 161.727 15.12C161.114 15.0933 160.501 15.1867 159.887 15.4C159.274 15.5867 158.754 15.88 158.327 16.28ZM189.125 11.36C189.339 11.8667 189.352 12.4267 189.165 13.04C189.005 13.6533 188.699 14.0533 188.245 14.24C188.005 14.3467 187.685 14.44 187.285 14.52C186.885 14.5733 186.445 14.6267 185.965 14.68C185.512 14.7333 185.059 14.7733 184.605 14.8C184.152 14.8267 183.765 14.84 183.445 14.84C183.472 15.64 183.499 16.4667 183.525 17.32C183.552 18.1467 183.579 18.96 183.605 19.76C183.632 20.56 183.645 21.3333 183.645 22.08C183.645 22.8 183.632 23.4533 183.605 24.04C183.605 24.44 183.605 24.9067 183.605 25.44C183.605 25.9467 183.565 26.44 183.485 26.92C183.432 27.4 183.339 27.8267 183.205 28.2C183.072 28.5467 182.872 28.7733 182.605 28.88C181.779 29.2267 181.019 29.32 180.325 29.16C179.659 29.0267 179.179 28.7467 178.885 28.32C178.672 27.9733 178.512 27.5733 178.405 27.12C178.299 26.64 178.219 26.16 178.165 25.68C178.139 25.1733 178.125 24.6933 178.125 24.24C178.152 23.76 178.165 23.3467 178.165 23C178.192 21.88 178.205 20.6133 178.205 19.2C178.232 17.76 178.245 16.32 178.245 14.88H177.645C177.325 14.88 176.912 14.88 176.405 14.88C175.925 14.8533 175.432 14.8133 174.925 14.76C174.445 14.68 173.992 14.5867 173.565 14.48C173.139 14.3467 172.832 14.16 172.645 13.92C172.352 13.5733 172.165 13.2 172.085 12.8C172.032 12.4 172.059 12.0267 172.165 11.68C172.299 11.3067 172.499 10.9867 172.765 10.72C173.032 10.4267 173.339 10.24 173.685 10.16C174.165 10.0267 174.845 9.96 175.725 9.96C176.605 9.93333 177.432 9.93333 178.205 9.96C178.179 9.69333 178.165 9.44 178.165 9.2C178.165 8.93333 178.152 8.68 178.125 8.44C178.099 8.12 178.085 7.72 178.085 7.24C178.085 6.73333 178.112 6.24 178.165 5.76C178.245 5.25333 178.365 4.78667 178.525 4.36C178.685 3.90667 178.912 3.56 179.205 3.32C179.605 3 180.005 2.82667 180.405 2.8C180.832 2.74667 181.219 2.8 181.565 2.96C181.939 3.12 182.245 3.36 182.485 3.68C182.752 3.97333 182.939 4.30667 183.045 4.68C183.125 5 183.192 5.38667 183.245 5.84C183.299 6.26667 183.325 6.72 183.325 7.2C183.352 7.68 183.365 8.16 183.365 8.64C183.365 9.12 183.365 9.56 183.365 9.96H183.765C184.165 9.96 184.632 9.94667 185.165 9.92C185.699 9.89333 186.219 9.90667 186.725 9.96C187.259 10.0133 187.739 10.1467 188.165 10.36C188.592 10.5467 188.912 10.88 189.125 11.36Z" fill="#F9B233"/>
</svg>
