<?xml version="1.0" encoding="utf-8"?>
<!-- Svg Vector Icons : http://www.onlinewebfonts.com/icon -->
<!DOCTYPE svg PUBLIC "-//W3C//DTD SVG 1.1//EN" "http://www.w3.org/Graphics/SVG/1.1/DTD/svg11.dtd">
<svg version="1.1" xmlns="http://www.w3.org/2000/svg" xmlns:xlink="http://www.w3.org/1999/xlink" x="0px" y="0px" viewBox="0 0 1000 1000" enable-background="new 0 0 1000 1000" xml:space="preserve">
<metadata> Svg Vector Icons : http://www.onlinewebfonts.com/icon </metadata>
<g><path d="M700.7,321.8c0-24.6-19.9-44.5-44.5-44.5H255.3c-24.6,0-44.5,19.9-44.5,44.5c0,24.6,19.9,44.5,44.5,44.5h400.9C680.8,366.4,700.7,346.4,700.7,321.8z M255.3,455.2c-24.6,0-44.5,19.9-44.5,44.5v0.2c0,24.6,19.9,44.5,44.5,44.5h267.3c24.6,0,44.5-19.9,44.5-44.5v-0.2c0-24.6-19.9-44.5-44.5-44.5H255.3z M277.5,900.9H233c-61.5,0-111.4-49.9-111.4-111.4V210.5c0-61.5,49.9-111.4,111.4-111.4h445.5c61.5,0,111.4,49.9,111.4,111.4v111.4c0,24.6,19.9,44.5,44.5,44.5c24.6,0,44.5-19.9,44.5-44.5V188.2C878.9,89.8,799.1,10,700.7,10h-490C112.3,10,32.5,89.8,32.5,188.2v623.6c0,98.4,79.8,178.2,178.2,178.2h66.8c24.6,0,44.5-19.9,44.5-44.5C322.1,920.9,302.1,900.9,277.5,900.9z M928.8,493.9c-51.6-51.8-135.2-51.8-186.8,0L453.5,778.8l0.3,0.3c-9.6,8.1-15.8,20.1-15.8,33.7v132.8c0,24.4,19.7,44.3,44,44.3h0h132.1c16.2,0,30.2-8.9,37.8-21.9l0.2,0.2l276.7-286.3C980.4,629.8,980.4,545.7,928.8,493.9z M866.5,619L594.4,901.2H526v-69.5l278.2-275.3c17.2-17.3,45.1-17.3,62.3,0C883.7,573.7,883.7,601.8,866.5,619z M388.9,633.6H255.3c-24.6,0-44.5,19.9-44.5,44.5c0,24.6,19.9,44.5,44.5,44.5h133.6c24.6,0,44.5-19.9,44.5-44.5C433.4,653.6,413.5,633.6,388.9,633.6z"/></g>
</svg>