<svg width="41" height="34" viewBox="0 0 41 34" fill="none" xmlns="http://www.w3.org/2000/svg">
<path fill-rule="evenodd" clip-rule="evenodd" d="M4.88974 3.23534H35.4628C35.6648 3.23485 35.8649 3.27426 36.0516 3.35132C36.2383 3.42838 36.4079 3.54157 36.5507 3.68437C36.6935 3.82718 36.8067 3.9968 36.8838 4.18349C36.9609 4.37018 37.0003 4.57025 36.9998 4.77222V6.28667C36.9998 7.13582 36.3123 7.82354 35.4628 7.82354H4.88974C4.68777 7.82404 4.48769 7.78462 4.301 7.70756C4.11431 7.63051 3.94468 7.51732 3.80187 7.37451C3.65905 7.2317 3.54585 7.06208 3.46878 6.8754C3.39172 6.68871 3.35229 6.48864 3.35277 6.28667V4.77222C3.35277 3.92298 4.04033 3.23534 4.88974 3.23534ZM0.293945 6.28667C0.293945 8.829 2.35005 10.8824 4.88974 10.8824H35.4628C38.0017 10.8824 40.0586 8.82507 40.0586 6.28667V4.77222C40.0586 2.22989 38.0025 0.176514 35.4628 0.176514H4.88974C2.3509 0.176514 0.293945 2.23381 0.293945 4.77222V6.28667ZM7.30637 28.7465C8.14844 28.2016 8.7057 27.2541 8.7057 26.1765C8.7057 24.4872 7.33622 23.1177 5.64687 23.1177C3.95753 23.1177 2.58805 24.4872 2.58805 26.1765C2.58805 27.2541 3.14531 28.2017 3.98738 28.7465L3.35277 33.8235H7.94097L7.30637 28.7465Z" fill="white"/>
</svg>
